<?xml version="1.0" encoding="UTF-8"?>
<svg xmlns="http://www.w3.org/2000/svg" xmlns:xlink="http://www.w3.org/1999/xlink" width="1000pt" height="1000pt" viewBox="0 0 1000 1000" version="1.1">
<g id="surface1551">
<rect x="0" y="0" width="1000" height="1000" style="fill:rgb(100%,100%,100%);fill-opacity:1;stroke:none;"/>
<path style="fill:none;stroke-width:0.0075;stroke-linecap:butt;stroke-linejoin:miter;stroke:rgb(0%,0%,0%);stroke-opacity:1;stroke-miterlimit:10;" d="M 0.05 0.05 L 0.95 0.05 L 0.95 0.95 L 0.05 0.95 Z M 0.05 0.05 " transform="matrix(1000,0,0,1000,0,0)"/>
<path style="fill:none;stroke-width:0.0075;stroke-linecap:butt;stroke-linejoin:miter;stroke:rgb(100%,0%,0%);stroke-opacity:1;stroke-miterlimit:10;" d="M 0.447602 0.654797 L 0.354648 0.519437 L 0.259727 0.654797 L 0.213367 0.654797 L 0.331133 0.493953 L 0.222367 0.345203 L 0.268742 0.345203 L 0.354867 0.466703 L 0.438586 0.345203 L 0.484945 0.345203 L 0.379039 0.492422 L 0.493961 0.654797 Z M 0.806844 0.496812 C 0.806844 0.52875 0.800617 0.556695 0.788172 0.580641 C 0.775723 0.60459 0.75807 0.622938 0.735219 0.635687 C 0.712363 0.64843 0.685992 0.654797 0.656109 0.654797 L 0.540328 0.654797 L 0.540328 0.345203 L 0.642719 0.345203 C 0.695156 0.345203 0.735617 0.358352 0.764109 0.384641 C 0.792598 0.410934 0.806844 0.448324 0.806844 0.496812 Z M 0.764656 0.496812 C 0.764656 0.458437 0.754145 0.42918 0.733125 0.409031 C 0.712102 0.388887 0.681672 0.378812 0.641828 0.378812 L 0.582281 0.378812 L 0.582281 0.621172 L 0.651281 0.621172 C 0.673988 0.621172 0.693945 0.616195 0.711156 0.606234 C 0.728363 0.596277 0.741582 0.581922 0.750812 0.563172 C 0.760039 0.544422 0.764656 0.522305 0.764656 0.496812 Z M 0.828379 0.654797 " transform="matrix(1000,0,0,1000,0,0)"/>
</g>
</svg>
