<?xml version="1.0" encoding="UTF-8" standalone="no"?>
<!DOCTYPE svg PUBLIC "-//W3C//DTD SVG 1.1//EN" 
 "http://www.w3.org/Graphics/SVG/1.1/DTD/svg11.dtd">
<svg width="100%" height="100%"
xmlns="http://www.w3.org/2000/svg"><polygon points="-6.0,18.856406460551018 -5.0,18.856406460551018 -5.5,17.99038105676658" fill="black"/>
<polygon points="-5.0,18.856406460551018 -4.0,18.856406460551018 -4.5,17.99038105676658" fill="black"/>
<polygon points="-5.5,17.99038105676658 -4.5,17.99038105676658 -5.0,17.12435565298214" fill="black"/>
<polygon points="-4.0,18.856406460551018 -3.0,18.856406460551018 -3.5,17.99038105676658" fill="black"/>
<polygon points="-3.0,18.856406460551018 -2.0,18.856406460551018 -2.5,17.99038105676658" fill="black"/>
<polygon points="-3.5,17.99038105676658 -2.5,17.99038105676658 -3.0,17.12435565298214" fill="black"/>
<polygon points="-5.0,17.12435565298214 -4.0,17.12435565298214 -4.5,16.2583302491977" fill="black"/>
<polygon points="-4.0,17.12435565298214 -3.0,17.12435565298214 -3.5,16.2583302491977" fill="black"/>
<polygon points="-4.5,16.2583302491977 -3.5,16.2583302491977 -4.0,15.392304845413264" fill="black"/>
<polygon points="-2.0,18.856406460551018 -1.0,18.856406460551018 -1.5,17.99038105676658" fill="black"/>
<polygon points="-1.0,18.856406460551018 0.0,18.856406460551018 -0.5,17.99038105676658" fill="black"/>
<polygon points="-1.5,17.99038105676658 -0.5,17.99038105676658 -1.0,17.12435565298214" fill="black"/>
<polygon points="0.0,18.856406460551018 1.0,18.856406460551018 0.5,17.99038105676658" fill="black"/>
<polygon points="1.0,18.856406460551018 2.0,18.856406460551018 1.5,17.99038105676658" fill="black"/>
<polygon points="0.5,17.99038105676658 1.5,17.99038105676658 1.0,17.12435565298214" fill="black"/>
<polygon points="-1.0,17.12435565298214 0.0,17.12435565298214 -0.5,16.2583302491977" fill="black"/>
<polygon points="0.0,17.12435565298214 1.0,17.12435565298214 0.5,16.2583302491977" fill="black"/>
<polygon points="-0.5,16.2583302491977 0.5,16.2583302491977 0.0,15.392304845413264" fill="black"/>
<polygon points="-4.0,15.392304845413264 -3.0,15.392304845413264 -3.5,14.526279441628825" fill="black"/>
<polygon points="-3.0,15.392304845413264 -2.0,15.392304845413264 -2.5,14.526279441628825" fill="black"/>
<polygon points="-3.5,14.526279441628825 -2.5,14.526279441628825 -3.0,13.660254037844386" fill="black"/>
<polygon points="-2.0,15.392304845413264 -1.0,15.392304845413264 -1.5,14.526279441628825" fill="black"/>
<polygon points="-1.0,15.392304845413264 0.0,15.392304845413264 -0.5,14.526279441628825" fill="black"/>
<polygon points="-1.5,14.526279441628825 -0.5,14.526279441628825 -1.0,13.660254037844386" fill="black"/>
<polygon points="-3.0,13.660254037844386 -2.0,13.660254037844386 -2.5,12.794228634059948" fill="black"/>
<polygon points="-2.0,13.660254037844386 -1.0,13.660254037844386 -1.5,12.794228634059948" fill="black"/>
<polygon points="-2.5,12.794228634059948 -1.5,12.794228634059948 -2.0,11.928203230275509" fill="black"/>
<polygon points="2.0,18.856406460551018 3.0,18.856406460551018 2.5,17.99038105676658" fill="black"/>
<polygon points="3.0,18.856406460551018 4.0,18.856406460551018 3.5,17.99038105676658" fill="black"/>
<polygon points="2.5,17.99038105676658 3.5,17.99038105676658 3.0,17.12435565298214" fill="black"/>
<polygon points="4.0,18.856406460551018 5.0,18.856406460551018 4.5,17.99038105676658" fill="black"/>
<polygon points="5.0,18.856406460551018 6.0,18.856406460551018 5.5,17.99038105676658" fill="black"/>
<polygon points="4.5,17.99038105676658 5.5,17.99038105676658 5.0,17.12435565298214" fill="black"/>
<polygon points="3.0,17.12435565298214 4.0,17.12435565298214 3.5,16.2583302491977" fill="black"/>
<polygon points="4.0,17.12435565298214 5.0,17.12435565298214 4.5,16.2583302491977" fill="black"/>
<polygon points="3.5,16.2583302491977 4.5,16.2583302491977 4.0,15.392304845413264" fill="black"/>
<polygon points="6.0,18.856406460551018 7.0,18.856406460551018 6.5,17.99038105676658" fill="black"/>
<polygon points="7.0,18.856406460551018 8.0,18.856406460551018 7.5,17.99038105676658" fill="black"/>
<polygon points="6.5,17.99038105676658 7.5,17.99038105676658 7.0,17.12435565298214" fill="black"/>
<polygon points="8.0,18.856406460551018 9.0,18.856406460551018 8.5,17.99038105676658" fill="black"/>
<polygon points="9.0,18.856406460551018 10.0,18.856406460551018 9.5,17.99038105676658" fill="black"/>
<polygon points="8.5,17.99038105676658 9.5,17.99038105676658 9.0,17.12435565298214" fill="black"/>
<polygon points="7.0,17.12435565298214 8.0,17.12435565298214 7.5,16.2583302491977" fill="black"/>
<polygon points="8.0,17.12435565298214 9.0,17.12435565298214 8.5,16.2583302491977" fill="black"/>
<polygon points="7.5,16.2583302491977 8.5,16.2583302491977 8.0,15.392304845413264" fill="black"/>
<polygon points="4.0,15.392304845413264 5.0,15.392304845413264 4.5,14.526279441628825" fill="black"/>
<polygon points="5.0,15.392304845413264 6.0,15.392304845413264 5.5,14.526279441628825" fill="black"/>
<polygon points="4.5,14.526279441628825 5.5,14.526279441628825 5.0,13.660254037844386" fill="black"/>
<polygon points="6.0,15.392304845413264 7.0,15.392304845413264 6.5,14.526279441628825" fill="black"/>
<polygon points="7.0,15.392304845413264 8.0,15.392304845413264 7.5,14.526279441628825" fill="black"/>
<polygon points="6.5,14.526279441628825 7.5,14.526279441628825 7.0,13.660254037844386" fill="black"/>
<polygon points="5.0,13.660254037844386 6.0,13.660254037844386 5.5,12.794228634059948" fill="black"/>
<polygon points="6.0,13.660254037844386 7.0,13.660254037844386 6.5,12.794228634059948" fill="black"/>
<polygon points="5.5,12.794228634059948 6.5,12.794228634059948 6.0,11.928203230275509" fill="black"/>
<polygon points="-2.0,11.928203230275509 -1.0,11.928203230275509 -1.5,11.06217782649107" fill="black"/>
<polygon points="-1.0,11.928203230275509 0.0,11.928203230275509 -0.5,11.06217782649107" fill="black"/>
<polygon points="-1.5,11.06217782649107 -0.5,11.06217782649107 -1.0,10.196152422706632" fill="black"/>
<polygon points="0.0,11.928203230275509 1.0,11.928203230275509 0.5,11.06217782649107" fill="black"/>
<polygon points="1.0,11.928203230275509 2.0,11.928203230275509 1.5,11.06217782649107" fill="black"/>
<polygon points="0.5,11.06217782649107 1.5,11.06217782649107 1.0,10.196152422706632" fill="black"/>
<polygon points="-1.0,10.196152422706632 0.0,10.196152422706632 -0.5,9.330127018922193" fill="black"/>
<polygon points="0.0,10.196152422706632 1.0,10.196152422706632 0.5,9.330127018922193" fill="black"/>
<polygon points="-0.5,9.330127018922193 0.5,9.330127018922193 0.0,8.464101615137753" fill="black"/>
<polygon points="2.0,11.928203230275509 3.0,11.928203230275509 2.5,11.06217782649107" fill="black"/>
<polygon points="3.0,11.928203230275509 4.0,11.928203230275509 3.5,11.06217782649107" fill="black"/>
<polygon points="2.5,11.06217782649107 3.5,11.06217782649107 3.0,10.196152422706632" fill="black"/>
<polygon points="4.0,11.928203230275509 5.0,11.928203230275509 4.5,11.06217782649107" fill="black"/>
<polygon points="5.0,11.928203230275509 6.0,11.928203230275509 5.5,11.06217782649107" fill="black"/>
<polygon points="4.5,11.06217782649107 5.5,11.06217782649107 5.0,10.196152422706632" fill="black"/>
<polygon points="3.0,10.196152422706632 4.0,10.196152422706632 3.5,9.330127018922193" fill="black"/>
<polygon points="4.0,10.196152422706632 5.0,10.196152422706632 4.5,9.330127018922193" fill="black"/>
<polygon points="3.5,9.330127018922193 4.5,9.330127018922193 4.0,8.464101615137753" fill="black"/>
<polygon points="0.0,8.464101615137753 1.0,8.464101615137753 0.5,7.598076211353315" fill="black"/>
<polygon points="1.0,8.464101615137753 2.0,8.464101615137753 1.5,7.598076211353315" fill="black"/>
<polygon points="0.5,7.598076211353315 1.5,7.598076211353315 1.0,6.732050807568877" fill="black"/>
<polygon points="2.0,8.464101615137753 3.0,8.464101615137753 2.5,7.598076211353315" fill="black"/>
<polygon points="3.0,8.464101615137753 4.0,8.464101615137753 3.5,7.598076211353315" fill="black"/>
<polygon points="2.5,7.598076211353315 3.5,7.598076211353315 3.0,6.732050807568877" fill="black"/>
<polygon points="1.0,6.732050807568877 2.0,6.732050807568877 1.5,5.866025403784438" fill="black"/>
<polygon points="2.0,6.732050807568877 3.0,6.732050807568877 2.5,5.866025403784438" fill="black"/>
<polygon points="1.5,5.866025403784438 2.5,5.866025403784438 2.0,5.0" fill="black"/>
<polygon points="10.0,18.856406460551018 11.0,18.856406460551018 10.5,17.99038105676658" fill="black"/>
<polygon points="11.0,18.856406460551018 12.0,18.856406460551018 11.5,17.99038105676658" fill="black"/>
<polygon points="10.5,17.99038105676658 11.5,17.99038105676658 11.0,17.12435565298214" fill="black"/>
<polygon points="12.0,18.856406460551018 13.0,18.856406460551018 12.5,17.99038105676658" fill="black"/>
<polygon points="13.0,18.856406460551018 14.0,18.856406460551018 13.5,17.99038105676658" fill="black"/>
<polygon points="12.5,17.99038105676658 13.5,17.99038105676658 13.0,17.12435565298214" fill="black"/>
<polygon points="11.0,17.12435565298214 12.0,17.12435565298214 11.5,16.2583302491977" fill="black"/>
<polygon points="12.0,17.12435565298214 13.0,17.12435565298214 12.5,16.2583302491977" fill="black"/>
<polygon points="11.5,16.2583302491977 12.5,16.2583302491977 12.0,15.392304845413264" fill="black"/>
<polygon points="14.0,18.856406460551018 15.0,18.856406460551018 14.5,17.99038105676658" fill="black"/>
<polygon points="15.0,18.856406460551018 16.0,18.856406460551018 15.5,17.99038105676658" fill="black"/>
<polygon points="14.5,17.99038105676658 15.5,17.99038105676658 15.0,17.12435565298214" fill="black"/>
<polygon points="16.0,18.856406460551018 17.0,18.856406460551018 16.5,17.99038105676658" fill="black"/>
<polygon points="17.0,18.856406460551018 18.0,18.856406460551018 17.5,17.99038105676658" fill="black"/>
<polygon points="16.5,17.99038105676658 17.5,17.99038105676658 17.0,17.12435565298214" fill="black"/>
<polygon points="15.0,17.12435565298214 16.0,17.12435565298214 15.5,16.2583302491977" fill="black"/>
<polygon points="16.0,17.12435565298214 17.0,17.12435565298214 16.5,16.2583302491977" fill="black"/>
<polygon points="15.5,16.2583302491977 16.5,16.2583302491977 16.0,15.392304845413264" fill="black"/>
<polygon points="12.0,15.392304845413264 13.0,15.392304845413264 12.5,14.526279441628825" fill="black"/>
<polygon points="13.0,15.392304845413264 14.0,15.392304845413264 13.5,14.526279441628825" fill="black"/>
<polygon points="12.5,14.526279441628825 13.5,14.526279441628825 13.0,13.660254037844386" fill="black"/>
<polygon points="14.0,15.392304845413264 15.0,15.392304845413264 14.5,14.526279441628825" fill="black"/>
<polygon points="15.0,15.392304845413264 16.0,15.392304845413264 15.5,14.526279441628825" fill="black"/>
<polygon points="14.5,14.526279441628825 15.5,14.526279441628825 15.0,13.660254037844386" fill="black"/>
<polygon points="13.0,13.660254037844386 14.0,13.660254037844386 13.5,12.794228634059948" fill="black"/>
<polygon points="14.0,13.660254037844386 15.0,13.660254037844386 14.5,12.794228634059948" fill="black"/>
<polygon points="13.5,12.794228634059948 14.5,12.794228634059948 14.0,11.928203230275509" fill="black"/>
<polygon points="18.0,18.856406460551018 19.0,18.856406460551018 18.5,17.99038105676658" fill="black"/>
<polygon points="19.0,18.856406460551018 20.0,18.856406460551018 19.5,17.99038105676658" fill="black"/>
<polygon points="18.5,17.99038105676658 19.5,17.99038105676658 19.0,17.12435565298214" fill="black"/>
<polygon points="20.0,18.856406460551018 21.0,18.856406460551018 20.5,17.99038105676658" fill="black"/>
<polygon points="21.0,18.856406460551018 22.0,18.856406460551018 21.5,17.99038105676658" fill="black"/>
<polygon points="20.5,17.99038105676658 21.5,17.99038105676658 21.0,17.12435565298214" fill="black"/>
<polygon points="19.0,17.12435565298214 20.0,17.12435565298214 19.5,16.2583302491977" fill="black"/>
<polygon points="20.0,17.12435565298214 21.0,17.12435565298214 20.5,16.2583302491977" fill="black"/>
<polygon points="19.5,16.2583302491977 20.5,16.2583302491977 20.0,15.392304845413264" fill="black"/>
<polygon points="22.0,18.856406460551018 23.0,18.856406460551018 22.5,17.99038105676658" fill="black"/>
<polygon points="23.0,18.856406460551018 24.0,18.856406460551018 23.5,17.99038105676658" fill="black"/>
<polygon points="22.5,17.99038105676658 23.5,17.99038105676658 23.0,17.12435565298214" fill="black"/>
<polygon points="24.0,18.856406460551018 25.0,18.856406460551018 24.5,17.99038105676658" fill="black"/>
<polygon points="25.0,18.856406460551018 26.0,18.856406460551018 25.5,17.99038105676658" fill="black"/>
<polygon points="24.5,17.99038105676658 25.5,17.99038105676658 25.0,17.12435565298214" fill="black"/>
<polygon points="23.0,17.12435565298214 24.0,17.12435565298214 23.5,16.2583302491977" fill="black"/>
<polygon points="24.0,17.12435565298214 25.0,17.12435565298214 24.5,16.2583302491977" fill="black"/>
<polygon points="23.5,16.2583302491977 24.5,16.2583302491977 24.0,15.392304845413264" fill="black"/>
<polygon points="20.0,15.392304845413264 21.0,15.392304845413264 20.5,14.526279441628825" fill="black"/>
<polygon points="21.0,15.392304845413264 22.0,15.392304845413264 21.5,14.526279441628825" fill="black"/>
<polygon points="20.5,14.526279441628825 21.5,14.526279441628825 21.0,13.660254037844386" fill="black"/>
<polygon points="22.0,15.392304845413264 23.0,15.392304845413264 22.5,14.526279441628825" fill="black"/>
<polygon points="23.0,15.392304845413264 24.0,15.392304845413264 23.5,14.526279441628825" fill="black"/>
<polygon points="22.5,14.526279441628825 23.5,14.526279441628825 23.0,13.660254037844386" fill="black"/>
<polygon points="21.0,13.660254037844386 22.0,13.660254037844386 21.5,12.794228634059948" fill="black"/>
<polygon points="22.0,13.660254037844386 23.0,13.660254037844386 22.5,12.794228634059948" fill="black"/>
<polygon points="21.5,12.794228634059948 22.5,12.794228634059948 22.0,11.928203230275509" fill="black"/>
<polygon points="14.0,11.928203230275509 15.0,11.928203230275509 14.5,11.06217782649107" fill="black"/>
<polygon points="15.0,11.928203230275509 16.0,11.928203230275509 15.5,11.06217782649107" fill="black"/>
<polygon points="14.5,11.06217782649107 15.5,11.06217782649107 15.0,10.196152422706632" fill="black"/>
<polygon points="16.0,11.928203230275509 17.0,11.928203230275509 16.5,11.06217782649107" fill="black"/>
<polygon points="17.0,11.928203230275509 18.0,11.928203230275509 17.5,11.06217782649107" fill="black"/>
<polygon points="16.5,11.06217782649107 17.5,11.06217782649107 17.0,10.196152422706632" fill="black"/>
<polygon points="15.0,10.196152422706632 16.0,10.196152422706632 15.5,9.330127018922193" fill="black"/>
<polygon points="16.0,10.196152422706632 17.0,10.196152422706632 16.5,9.330127018922193" fill="black"/>
<polygon points="15.5,9.330127018922193 16.5,9.330127018922193 16.0,8.464101615137753" fill="black"/>
<polygon points="18.0,11.928203230275509 19.0,11.928203230275509 18.5,11.06217782649107" fill="black"/>
<polygon points="19.0,11.928203230275509 20.0,11.928203230275509 19.5,11.06217782649107" fill="black"/>
<polygon points="18.5,11.06217782649107 19.5,11.06217782649107 19.0,10.196152422706632" fill="black"/>
<polygon points="20.0,11.928203230275509 21.0,11.928203230275509 20.5,11.06217782649107" fill="black"/>
<polygon points="21.0,11.928203230275509 22.0,11.928203230275509 21.5,11.06217782649107" fill="black"/>
<polygon points="20.5,11.06217782649107 21.5,11.06217782649107 21.0,10.196152422706632" fill="black"/>
<polygon points="19.0,10.196152422706632 20.0,10.196152422706632 19.5,9.330127018922193" fill="black"/>
<polygon points="20.0,10.196152422706632 21.0,10.196152422706632 20.5,9.330127018922193" fill="black"/>
<polygon points="19.5,9.330127018922193 20.5,9.330127018922193 20.0,8.464101615137753" fill="black"/>
<polygon points="16.0,8.464101615137753 17.0,8.464101615137753 16.5,7.598076211353315" fill="black"/>
<polygon points="17.0,8.464101615137753 18.0,8.464101615137753 17.5,7.598076211353315" fill="black"/>
<polygon points="16.5,7.598076211353315 17.5,7.598076211353315 17.0,6.732050807568877" fill="black"/>
<polygon points="18.0,8.464101615137753 19.0,8.464101615137753 18.5,7.598076211353315" fill="black"/>
<polygon points="19.0,8.464101615137753 20.0,8.464101615137753 19.5,7.598076211353315" fill="black"/>
<polygon points="18.5,7.598076211353315 19.5,7.598076211353315 19.0,6.732050807568877" fill="black"/>
<polygon points="17.0,6.732050807568877 18.0,6.732050807568877 17.5,5.866025403784438" fill="black"/>
<polygon points="18.0,6.732050807568877 19.0,6.732050807568877 18.5,5.866025403784438" fill="black"/>
<polygon points="17.5,5.866025403784438 18.5,5.866025403784438 18.0,5.0" fill="black"/>
<polygon points="2.0,5.0 3.0,5.0 2.5,4.133974596215562" fill="black"/>
<polygon points="3.0,5.0 4.0,5.0 3.5,4.133974596215562" fill="black"/>
<polygon points="2.5,4.133974596215562 3.5,4.133974596215562 3.0,3.267949192431123" fill="black"/>
<polygon points="4.0,5.0 5.0,5.0 4.5,4.133974596215562" fill="black"/>
<polygon points="5.0,5.0 6.0,5.0 5.5,4.133974596215562" fill="black"/>
<polygon points="4.5,4.133974596215562 5.5,4.133974596215562 5.0,3.267949192431123" fill="black"/>
<polygon points="3.0,3.267949192431123 4.0,3.267949192431123 3.5,2.401923788646684" fill="black"/>
<polygon points="4.0,3.267949192431123 5.0,3.267949192431123 4.5,2.401923788646684" fill="black"/>
<polygon points="3.5,2.401923788646684 4.5,2.401923788646684 4.0,1.5358983848622456" fill="black"/>
<polygon points="6.0,5.0 7.0,5.0 6.5,4.133974596215562" fill="black"/>
<polygon points="7.0,5.0 8.0,5.0 7.5,4.133974596215562" fill="black"/>
<polygon points="6.5,4.133974596215562 7.5,4.133974596215562 7.0,3.267949192431123" fill="black"/>
<polygon points="8.0,5.0 9.0,5.0 8.5,4.133974596215562" fill="black"/>
<polygon points="9.0,5.0 10.0,5.0 9.5,4.133974596215562" fill="black"/>
<polygon points="8.5,4.133974596215562 9.5,4.133974596215562 9.0,3.267949192431123" fill="black"/>
<polygon points="7.0,3.267949192431123 8.0,3.267949192431123 7.5,2.401923788646684" fill="black"/>
<polygon points="8.0,3.267949192431123 9.0,3.267949192431123 8.5,2.401923788646684" fill="black"/>
<polygon points="7.5,2.401923788646684 8.5,2.401923788646684 8.0,1.5358983848622456" fill="black"/>
<polygon points="4.0,1.5358983848622456 5.0,1.5358983848622456 4.5,0.669872981077807" fill="black"/>
<polygon points="5.0,1.5358983848622456 6.0,1.5358983848622456 5.5,0.669872981077807" fill="black"/>
<polygon points="4.5,0.669872981077807 5.5,0.669872981077807 5.0,-0.19615242270663158" fill="black"/>
<polygon points="6.0,1.5358983848622456 7.0,1.5358983848622456 6.5,0.669872981077807" fill="black"/>
<polygon points="7.0,1.5358983848622456 8.0,1.5358983848622456 7.5,0.669872981077807" fill="black"/>
<polygon points="6.5,0.669872981077807 7.5,0.669872981077807 7.0,-0.19615242270663158" fill="black"/>
<polygon points="5.0,-0.19615242270663158 6.0,-0.19615242270663158 5.5,-1.0621778264910702" fill="black"/>
<polygon points="6.0,-0.19615242270663158 7.0,-0.19615242270663158 6.5,-1.0621778264910702" fill="black"/>
<polygon points="5.5,-1.0621778264910702 6.5,-1.0621778264910702 6.0,-1.9282032302755088" fill="black"/>
<polygon points="10.0,5.0 11.0,5.0 10.5,4.133974596215562" fill="black"/>
<polygon points="11.0,5.0 12.0,5.0 11.5,4.133974596215562" fill="black"/>
<polygon points="10.5,4.133974596215562 11.5,4.133974596215562 11.0,3.267949192431123" fill="black"/>
<polygon points="12.0,5.0 13.0,5.0 12.5,4.133974596215562" fill="black"/>
<polygon points="13.0,5.0 14.0,5.0 13.5,4.133974596215562" fill="black"/>
<polygon points="12.5,4.133974596215562 13.5,4.133974596215562 13.0,3.267949192431123" fill="black"/>
<polygon points="11.0,3.267949192431123 12.0,3.267949192431123 11.5,2.401923788646684" fill="black"/>
<polygon points="12.0,3.267949192431123 13.0,3.267949192431123 12.5,2.401923788646684" fill="black"/>
<polygon points="11.5,2.401923788646684 12.5,2.401923788646684 12.0,1.5358983848622456" fill="black"/>
<polygon points="14.0,5.0 15.0,5.0 14.5,4.133974596215562" fill="black"/>
<polygon points="15.0,5.0 16.0,5.0 15.5,4.133974596215562" fill="black"/>
<polygon points="14.5,4.133974596215562 15.5,4.133974596215562 15.0,3.267949192431123" fill="black"/>
<polygon points="16.0,5.0 17.0,5.0 16.5,4.133974596215562" fill="black"/>
<polygon points="17.0,5.0 18.0,5.0 17.5,4.133974596215562" fill="black"/>
<polygon points="16.5,4.133974596215562 17.5,4.133974596215562 17.0,3.267949192431123" fill="black"/>
<polygon points="15.0,3.267949192431123 16.0,3.267949192431123 15.5,2.401923788646684" fill="black"/>
<polygon points="16.0,3.267949192431123 17.0,3.267949192431123 16.5,2.401923788646684" fill="black"/>
<polygon points="15.5,2.401923788646684 16.5,2.401923788646684 16.0,1.5358983848622456" fill="black"/>
<polygon points="12.0,1.5358983848622456 13.0,1.5358983848622456 12.5,0.669872981077807" fill="black"/>
<polygon points="13.0,1.5358983848622456 14.0,1.5358983848622456 13.5,0.669872981077807" fill="black"/>
<polygon points="12.5,0.669872981077807 13.5,0.669872981077807 13.0,-0.19615242270663158" fill="black"/>
<polygon points="14.0,1.5358983848622456 15.0,1.5358983848622456 14.5,0.669872981077807" fill="black"/>
<polygon points="15.0,1.5358983848622456 16.0,1.5358983848622456 15.5,0.669872981077807" fill="black"/>
<polygon points="14.5,0.669872981077807 15.5,0.669872981077807 15.0,-0.19615242270663158" fill="black"/>
<polygon points="13.0,-0.19615242270663158 14.0,-0.19615242270663158 13.5,-1.0621778264910702" fill="black"/>
<polygon points="14.0,-0.19615242270663158 15.0,-0.19615242270663158 14.5,-1.0621778264910702" fill="black"/>
<polygon points="13.5,-1.0621778264910702 14.5,-1.0621778264910702 14.0,-1.9282032302755088" fill="black"/>
<polygon points="6.0,-1.9282032302755088 7.0,-1.9282032302755088 6.5,-2.794228634059947" fill="black"/>
<polygon points="7.0,-1.9282032302755088 8.0,-1.9282032302755088 7.5,-2.794228634059947" fill="black"/>
<polygon points="6.5,-2.794228634059947 7.5,-2.794228634059947 7.0,-3.660254037844386" fill="black"/>
<polygon points="8.0,-1.9282032302755088 9.0,-1.9282032302755088 8.5,-2.794228634059947" fill="black"/>
<polygon points="9.0,-1.9282032302755088 10.0,-1.9282032302755088 9.5,-2.794228634059947" fill="black"/>
<polygon points="8.5,-2.794228634059947 9.5,-2.794228634059947 9.0,-3.660254037844386" fill="black"/>
<polygon points="7.0,-3.660254037844386 8.0,-3.660254037844386 7.5,-4.526279441628825" fill="black"/>
<polygon points="8.0,-3.660254037844386 9.0,-3.660254037844386 8.5,-4.526279441628825" fill="black"/>
<polygon points="7.5,-4.526279441628825 8.5,-4.526279441628825 8.0,-5.392304845413263" fill="black"/>
<polygon points="10.0,-1.9282032302755088 11.0,-1.9282032302755088 10.5,-2.794228634059947" fill="black"/>
<polygon points="11.0,-1.9282032302755088 12.0,-1.9282032302755088 11.5,-2.794228634059947" fill="black"/>
<polygon points="10.5,-2.794228634059947 11.5,-2.794228634059947 11.0,-3.660254037844386" fill="black"/>
<polygon points="12.0,-1.9282032302755088 13.0,-1.9282032302755088 12.5,-2.794228634059947" fill="black"/>
<polygon points="13.0,-1.9282032302755088 14.0,-1.9282032302755088 13.5,-2.794228634059947" fill="black"/>
<polygon points="12.5,-2.794228634059947 13.5,-2.794228634059947 13.0,-3.660254037844386" fill="black"/>
<polygon points="11.0,-3.660254037844386 12.0,-3.660254037844386 11.5,-4.526279441628825" fill="black"/>
<polygon points="12.0,-3.660254037844386 13.0,-3.660254037844386 12.5,-4.526279441628825" fill="black"/>
<polygon points="11.5,-4.526279441628825 12.5,-4.526279441628825 12.0,-5.392304845413263" fill="black"/>
<polygon points="8.0,-5.392304845413263 9.0,-5.392304845413263 8.5,-6.2583302491977015" fill="black"/>
<polygon points="9.0,-5.392304845413263 10.0,-5.392304845413263 9.5,-6.2583302491977015" fill="black"/>
<polygon points="8.5,-6.2583302491977015 9.5,-6.2583302491977015 9.0,-7.124355652982141" fill="black"/>
<polygon points="10.0,-5.392304845413263 11.0,-5.392304845413263 10.5,-6.2583302491977015" fill="black"/>
<polygon points="11.0,-5.392304845413263 12.0,-5.392304845413263 11.5,-6.2583302491977015" fill="black"/>
<polygon points="10.5,-6.2583302491977015 11.5,-6.2583302491977015 11.0,-7.124355652982141" fill="black"/>
<polygon points="9.0,-7.124355652982141 10.0,-7.124355652982141 9.5,-7.990381056766579" fill="black"/>
<polygon points="10.0,-7.124355652982141 11.0,-7.124355652982141 10.5,-7.990381056766579" fill="black"/>
<polygon points="9.5,-7.990381056766579 10.5,-7.990381056766579 10.0,-8.856406460551018" fill="black"/></svg>